PathFileType	4	(X/Y/Z)	tour_average_tracked.trc
DataRate	CameraRate	NumFrames	NumMarkers	Units	OrigDataRate	OrigDataStartFrame	OrigNumFrames
360.00	360.00	12	34	m	360.00	328	654
Frame#	Time	WaistLeft			WaistRight			WaistLBack			WaistRBack			BackTop			BackLeft			BackRight			HeadTop			HeadFront			HeadSide			LShoulderTop			LShoulderBack			LElbowOut			LUArmHigh			LWristTop			RShoulderTop			RShoulderBack			RElbowOut			RUArmHigh			RWristTop			LKneeOut			LToeIn			LToeOut			LAnkleOut			RKneeOut			RToeIn			RToeOut			RAnkleOut			Marker_2:2:1			Marker_2:2:2			Marker_2:2:3			Marker_3:3:1			Marker_3:3:2			Marker_3:3:3		
		X1	Y1	Z1	X2	Y2	Z2	X3	Y3	Z3	X4	Y4	Z4	X5	Y5	Z5	X6	Y6	Z6	X7	Y7	Z7	X8	Y8	Z8	X9	Y9	Z9	X10	Y10	Z10	X11	Y11	Z11	X12	Y12	Z12	X13	Y13	Z13	X14	Y14	Z14	X15	Y15	Z15	X16	Y16	Z16	X17	Y17	Z17	X18	Y18	Z18	X19	Y19	Z19	X20	Y20	Z20	X21	Y21	Z21	X22	Y22	Z22	X23	Y23	Z23	X24	Y24	Z24	X25	Y25	Z25	X26	Y26	Z26	X27	Y27	Z27	X28	Y28	Z28	X29	Y29	Z29	X30	Y30	Z30	X31	Y31	Z31	X32	Y32	Z32	X33	Y33	Z33	X34	Y34	Z34

328	0.908333333	0.994828	0.963319	0.023378	1.206031	1.028190	-0.235631	1.147736	1.030736	0.049557	1.262931	1.046840	-0.073124	0.849657	1.436787	-0.033913	0.862905	1.251680	0.014443	1.023766	1.337898	-0.015431	0.653688	1.639317	-0.121007	0.575343	1.514272	-0.170288	0.675135	1.547127	-0.026276	0.708160	1.377058	-0.163479	0.735662	1.321360	-0.020354	0.845740	1.308435	-0.425978	0.754678	1.242394	-0.271755	0.988000	1.494981	-0.580340	NaN	NaN	NaN	0.980080	1.480299	-0.052453	1.219682	1.308714	-0.349000	1.153828	1.392178	-0.198506	1.133297	1.501771	-0.537736	0.995902	0.487140	0.177678	0.987558	0.051357	0.221571	1.020146	0.046676	0.323010	1.158005	0.102552	0.267293	1.113787	0.531901	-0.325257	0.981026	0.039153	-0.294228	0.981571	0.036111	-0.411640	1.134407	0.114217	-0.381116	1.622050	2.250366	-0.163799	1.601975	2.277051	-0.077379	1.647968	2.254000	-0.070894	1.245699	1.783553	-0.495306	1.226507	1.707148	-0.511459	1.181742	1.694948	-0.547806
329	0.911111111	0.994481	0.962936	0.022948	1.206345	1.028115	-0.235422	1.147279	1.030391	0.049578	1.262825	1.046564	-0.072741	0.849142	1.436298	-0.034057	0.861954	1.251088	0.013586	1.023147	1.337213	-0.015125	0.653903	1.639320	-0.121324	0.575423	1.514536	-0.171002	0.674983	1.546929	-0.026729	0.708371	1.377716	-0.164324	0.734942	1.321039	-0.021371	0.847059	1.311780	-0.426491	0.755417	1.244142	-0.273397	0.990216	1.500175	-0.577918	NaN	NaN	NaN	0.979634	1.479778	-0.051780	1.221008	1.310383	-0.348417	1.154027	1.392219	-0.197406	1.135129	1.506259	-0.534448	0.995190	0.486823	0.177266	0.987562	0.051359	0.221498	1.020108	0.046704	0.322951	1.157933	0.102562	0.267201	1.113823	0.531893	-0.325315	0.981047	0.039164	-0.294271	0.981618	0.036102	-0.411666	1.134431	0.114182	-0.381127	1.619197	2.248392	-0.142692	1.598568	2.273384	-0.055861	1.644720	2.250300	-0.049821	1.246630	1.787337	-0.486019	1.227646	1.711197	-0.503695	1.183221	1.699630	-0.540525
330	0.913888889	0.994120	0.962558	0.022466	1.206714	1.028051	-0.235219	1.146811	1.030031	0.049585	1.262733	1.046317	-0.072366	0.848707	1.435883	-0.034178	0.861044	1.250510	0.012851	1.022444	1.336578	-0.014839	0.654112	1.639342	-0.121631	0.575610	1.514815	-0.171785	0.674797	1.546744	-0.027192	0.708504	1.378385	-0.165150	0.734280	1.320700	-0.022605	0.848409	1.315135	-0.427014	0.755956	1.245857	-0.274985	0.992329	1.505282	-0.575469	NaN	NaN	NaN	0.979214	1.479264	-0.051125	1.222432	1.312062	-0.347758	1.154190	1.392225	-0.196410	1.136991	1.510748	-0.531220	0.994488	0.486519	0.176876	0.987520	0.051307	0.221441	1.020075	0.046728	0.322895	1.157853	0.102610	0.267116	1.113826	0.531859	-0.325401	0.981055	0.039209	-0.294313	0.981638	0.036122	-0.411724	1.134460	0.114160	-0.381136	1.616368	2.246176	-0.121799	1.594974	2.269414	-0.034728	1.641095	2.246331	-0.028656	1.247384	1.790985	-0.476647	1.228720	1.715102	-0.495973	1.184450	1.704078	-0.533303
331	0.916666667	0.993805	0.962212	0.022048	1.207072	1.027967	-0.234987	1.146374	1.029685	0.049570	1.262680	1.046063	-0.072027	0.848204	1.435430	-0.034301	0.860169	1.249966	0.012170	1.021767	1.335954	-0.014473	0.654355	1.639371	-0.121970	0.575824	1.515062	-0.172573	0.674612	1.546551	-0.027660	0.708541	1.379059	-0.165877	0.733685	1.320359	-0.023727	0.849998	1.318347	-0.427549	0.756507	1.247538	-0.276455	0.994618	1.510280	-0.573016	NaN	NaN	NaN	0.978825	1.478728	-0.050485	1.223760	1.313703	-0.347146	1.154438	1.392267	-0.195367	1.138800	1.515090	-0.527909	0.993810	0.486203	0.176519	0.987533	0.051312	0.221378	1.020059	0.046767	0.322827	1.157768	0.102681	0.267040	1.113838	0.531838	-0.325476	0.981059	0.039221	-0.294370	0.981665	0.036114	-0.411743	1.134478	0.114152	-0.381142	1.613110	2.243550	-0.101036	1.591057	2.265039	-0.013674	1.636952	2.241913	-0.007621	1.247993	1.794381	-0.467374	1.229694	1.718859	-0.488177	1.185779	1.708513	-0.526079
332	0.919444444	0.993436	0.961856	0.021613	1.207446	1.027880	-0.234753	1.145976	1.029355	0.049579	1.262660	1.045838	-0.071689	0.847761	1.434973	-0.034401	0.859217	1.249442	0.011389	1.021047	1.335355	-0.014162	0.654573	1.639393	-0.122317	0.575920	1.515333	-0.173322	0.674462	1.546350	-0.028121	0.708533	1.379753	-0.166515	0.733069	1.320066	-0.024770	0.851169	1.321689	-0.427844	0.757033	1.249254	-0.277943	0.996568	1.515308	-0.570449	NaN	NaN	NaN	0.978424	1.478204	-0.049868	1.225034	1.315349	-0.346479	1.154634	1.392323	-0.194299	1.140759	1.519482	-0.524386	0.993197	0.485926	0.176162	0.987492	0.051291	0.221320	1.020039	0.046778	0.322761	1.157690	0.102729	0.266940	1.113847	0.531812	-0.325553	0.981062	0.039261	-0.294395	0.981679	0.036118	-0.411798	1.134506	0.114128	-0.381157	1.609785	2.240597	-0.080502	1.586966	2.260265	0.007047	1.632952	2.237248	0.013108	1.248608	1.797665	-0.457993	1.230634	1.722527	-0.480436	1.186836	1.712630	-0.518736
333	0.922222222	0.993036	0.961451	0.021160	1.207797	1.027796	-0.234534	1.145526	1.028982	0.049638	1.262592	1.045573	-0.071318	0.847368	1.434536	-0.034516	0.858299	1.248916	0.010646	1.020491	1.334713	-0.013912	0.654796	1.639413	-0.122648	0.576027	1.515579	-0.174030	0.674293	1.546178	-0.028542	0.708540	1.380445	-0.167201	0.732407	1.319754	-0.025792	0.852511	1.324941	-0.428171	0.757693	1.250920	-0.279381	0.998632	1.520168	-0.567798	NaN	NaN	NaN	0.978100	1.477694	-0.049249	1.226435	1.317016	-0.345809	1.154802	1.392362	-0.193367	1.142332	1.523488	-0.520948	0.992568	0.485670	0.175746	0.987488	0.051259	0.221252	1.020009	0.046796	0.322715	1.157608	0.102716	0.266838	1.113841	0.531790	-0.325630	0.981069	0.039265	-0.294431	0.981693	0.036100	-0.411839	1.134529	0.114139	-0.381143	1.606213	2.237313	-0.060129	1.582550	2.255188	0.027653	1.628758	2.232213	0.033387	1.249001	1.800707	-0.448761	1.231302	1.725841	-0.472671	1.188017	1.716723	-0.511453
334	0.925000000	0.992692	0.961006	0.020696	1.208087	1.027698	-0.234330	1.145054	1.028598	0.049657	1.262503	1.045325	-0.070902	0.846988	1.434065	-0.034663	0.857495	1.248391	0.009935	1.019832	1.334032	-0.013595	0.654991	1.639415	-0.122988	0.576156	1.515756	-0.174732	0.674122	1.545971	-0.028977	0.708668	1.381101	-0.167899	0.731759	1.319415	-0.026856	0.853986	1.328045	-0.428526	0.758388	1.252519	-0.280766	1.000735	1.525012	-0.565065	NaN	NaN	NaN	0.977744	1.477186	-0.048636	1.227677	1.318569	-0.345182	1.154999	1.392355	-0.192308	1.144035	1.527591	-0.517573	0.991936	0.485386	0.175348	0.987442	0.051239	0.221193	1.019964	0.046811	0.322639	1.157542	0.102751	0.266723	1.113831	0.531774	-0.325700	0.981067	0.039280	-0.294475	0.981711	0.036096	-0.411884	1.134555	0.114116	-0.381154	1.602237	2.233709	-0.039961	1.577909	2.249765	0.048031	1.624144	2.226856	0.053531	1.249363	1.803578	-0.439430	1.232040	1.729153	-0.464837	1.188868	1.720580	-0.504126
335	0.927777778	0.992412	0.960615	0.020277	1.208442	1.027606	-0.234097	1.144627	1.028217	0.049691	1.262365	1.045046	-0.070478	0.846668	1.433612	-0.034774	0.856644	1.247856	0.009259	1.019154	1.333443	-0.013232	0.655244	1.639422	-0.123305	0.576404	1.515938	-0.175504	0.674011	1.545765	-0.029440	0.708995	1.381562	-0.168573	0.731208	1.319075	-0.027895	0.855278	1.331220	-0.428719	0.758948	1.254203	-0.282117	1.002676	1.529718	-0.562422	NaN	NaN	NaN	0.977397	1.476635	-0.048006	1.229018	1.320188	-0.344447	1.155159	1.392330	-0.191300	1.145659	1.531722	-0.514210	0.991297	0.485072	0.174967	0.987414	0.051198	0.221131	1.019927	0.046823	0.322591	1.157471	0.102796	0.266648	1.113833	0.531757	-0.325775	0.981056	0.039298	-0.294507	0.981731	0.036075	-0.411917	1.134563	0.114104	-0.381161	1.598109	2.229732	-0.019945	1.573184	2.244093	0.068170	1.619472	2.221231	0.073543	1.249532	1.806285	-0.430249	1.232629	1.732311	-0.457106	1.189763	1.724333	-0.496816
336	0.930555556	0.992061	0.960208	0.019898	1.208758	1.027529	-0.233856	1.144202	1.027851	0.049723	1.262262	1.044752	-0.070064	0.846256	1.433141	-0.034910	0.855751	1.247284	0.008445	1.018582	1.332846	-0.012938	0.655410	1.639407	-0.123612	0.576666	1.516096	-0.176305	0.673871	1.545544	-0.029899	0.709682	1.381939	-0.169057	0.730632	1.318755	-0.028892	0.856315	1.334358	-0.428823	0.759574	1.255769	-0.283386	1.004540	1.534389	-0.559615	NaN	NaN	NaN	0.977013	1.476088	-0.047367	1.230212	1.321732	-0.343787	1.155275	1.392309	-0.190382	1.147150	1.535633	-0.510714	0.990595	0.484716	0.174568	0.987403	0.051168	0.221069	1.019899	0.046850	0.322517	1.157382	0.102820	0.266554	1.113830	0.531740	-0.325832	0.981055	0.039312	-0.294537	0.981752	0.036082	-0.411959	1.134581	0.114090	-0.381167	1.593964	2.225513	-0.000308	1.568187	2.238061	0.087950	1.614506	2.215242	0.093239	1.249707	1.808833	-0.420999	1.233151	1.735369	-0.449462	1.190674	1.727926	-0.489540
337	0.933333333	0.991717	0.959813	0.019493	1.209103	1.027476	-0.233593	1.143763	1.027497	0.049771	1.262162	1.044502	-0.069661	0.845844	1.432662	-0.034997	0.854986	1.246766	0.007734	1.017947	1.332204	-0.012659	0.655577	1.639392	-0.123903	0.576802	1.516288	-0.176972	0.673749	1.545343	-0.030354	0.709042	1.382795	-0.169635	0.730121	1.318433	-0.029874	0.857618	1.337358	-0.428971	0.760134	1.257421	-0.284647	1.006590	1.538955	-0.556852	NaN	NaN	NaN	0.976681	1.475547	-0.046752	1.231579	1.323345	-0.343071	1.155499	1.392300	-0.189362	1.148670	1.539486	-0.507155	0.989931	0.484370	0.174158	0.987379	0.051146	0.221027	1.019848	0.046862	0.322453	1.157287	0.102872	0.266459	1.113821	0.531734	-0.325920	0.981045	0.039310	-0.294602	0.981753	0.036067	-0.411996	1.134606	0.114101	-0.381172	1.589501	2.220928	0.019157	1.562906	2.231771	0.107497	1.609312	2.208965	0.112596	1.249643	1.811196	-0.411847	1.233604	1.738168	-0.441652	1.191265	1.731376	-0.482139
338	0.936111111	0.991384	0.959423	0.019107	1.209442	1.027382	-0.233306	1.143345	1.027133	0.049823	1.262095	1.044241	-0.069275	0.845481	1.432222	-0.035059	0.854139	1.246165	0.007070	1.017280	1.331593	-0.012365	0.655768	1.639367	-0.124177	0.576832	1.516477	-0.177522	0.673662	1.545151	-0.030785	0.708995	1.383439	-0.170113	0.729628	1.318151	-0.030878	0.859214	1.340026	-0.429478	0.760690	1.258925	-0.285879	1.008295	1.543521	-0.553931	NaN	NaN	NaN	0.976357	1.475013	-0.046149	1.232780	1.324802	-0.342330	1.155738	1.392319	-0.188434	1.150123	1.543220	-0.503659	0.989213	0.484063	0.173755	0.987352	0.051098	0.220968	1.019820	0.046883	0.322418	1.157174	0.102937	0.266370	1.113834	0.531712	-0.325974	0.981019	0.039327	-0.294640	0.981766	0.036026	-0.412044	1.134603	0.114079	-0.381160	1.584776	2.216048	0.038353	1.557568	2.225162	0.126791	1.603823	2.202341	0.131705	1.249620	1.813341	-0.402710	1.233910	1.740860	-0.434005	1.191947	1.734742	-0.474910
339	0.938888889	0.991035	0.959038	0.018756	1.209768	1.027276	-0.233032	1.142904	1.026754	0.049872	1.262059	1.044046	-0.068866	0.845145	1.431800	-0.035148	0.853419	1.245667	0.006420	1.016672	1.330956	-0.012014	0.655966	1.639358	-0.124424	0.577028	1.516642	-0.178212	0.673555	1.544953	-0.031195	0.708980	1.384021	-0.170551	0.729111	1.317865	-0.031836	0.860437	1.342969	-0.429483	0.761350	1.260536	-0.287101	1.010106	1.547917	-0.551060	NaN	NaN	NaN	0.976008	1.474509	-0.045559	1.234047	1.326333	-0.341680	1.155905	1.392287	-0.187579	1.151539	1.546892	-0.500107	0.988568	0.483793	0.173357	0.987337	0.051107	0.220917	1.019773	0.046897	0.322355	1.157108	0.102949	0.266277	1.113829	0.531722	-0.326043	0.981015	0.039354	-0.294675	0.981769	0.036020	-0.412073	1.134627	0.114088	-0.381165	1.579989	2.210838	0.057312	1.552040	2.218471	0.145104	1.598392	2.195510	0.150591	1.249425	1.815441	-0.393692	1.234121	1.743375	-0.426398	1.192487	1.737997	-0.467700
